<svg width="222" height="172" viewBox="0 0 222 172" fill="none" xmlns="http://www.w3.org/2000/svg">
<circle cx="119" cy="86" r="86" fill="#CCD4D3"/>
<rect x="177.001" width="8.54132" height="34.7347" fill="#02343F"/>
<rect x="197" y="26.8984" width="8.54132" height="34.7347" transform="rotate(133.474 197 26.8984)" fill="#02343F"/>
<rect x="191.001" y="2.81641" width="8.54132" height="34.7347" transform="rotate(45 191.001 2.81641)" fill="#02343F"/>
<rect x="199" y="13.8459" width="8.54132" height="34.7347" transform="rotate(90 199 13.8459)" fill="#02343F"/>
<circle cx="215" cy="26" r="7" fill="#CCD4D3"/>
<circle cx="5.5" cy="104.5" r="5.5" fill="#CCD4D3"/>
<path d="M203.611 47.7007C204.57 43.5843 210.43 43.5843 211.389 47.7007C211.839 49.6337 213.64 50.9427 215.618 50.7734C219.829 50.413 221.64 55.9867 218.021 58.1703C216.322 59.1957 215.634 61.3136 216.406 63.1421C218.05 67.0357 213.309 70.4804 210.114 67.7136C208.613 66.4143 206.387 66.4143 204.886 67.7136C201.691 70.4804 196.95 67.0357 198.594 63.1421C199.366 61.3136 198.678 59.1957 196.979 58.1703C193.36 55.9867 195.171 50.413 199.382 50.7734C201.36 50.9427 203.161 49.6337 203.611 47.7007Z" fill="#356778"/>
<path d="M28.5 110L33.1879 116.182L40.8744 115.126L39.8175 122.812L46 127.5L39.8175 132.188L40.8744 139.874L33.1879 138.818L28.5 145L23.8121 138.818L16.1256 139.874L17.1825 132.188L11 127.5L17.1825 122.812L16.1256 115.126L23.8121 116.182L28.5 110Z" fill="#02343F"/>
<path d="M84 107H126" stroke="#CCD4D3" stroke-width="3" stroke-linecap="round"/>
<path d="M84.5 114.5H139.5" stroke="#CCD4D3" stroke-width="3" stroke-linecap="round"/>
<path d="M84.5 122.5H131.5" stroke="#CCD4D3" stroke-width="3" stroke-linecap="round"/>
<path d="M150.023 113.39L149.767 100.843L161.017 107.338L150.023 113.39Z" fill="#CCD4D3"/>
<rect x="89.6626" y="65.2617" width="56.9231" height="11.3846" rx="3.41538" fill="#356778"/>
<path d="M109.017 22H127.232V66.4C127.232 68.2863 125.703 69.8154 123.817 69.8154H112.432C110.546 69.8154 109.017 68.2863 109.017 66.4V22Z" fill="#356778"/>
<path d="M103.324 75.5078L87.9953 90.8366C85.7723 93.0596 85.7723 96.6637 87.9953 98.8867L95.9241 106.816" stroke="#356778" stroke-width="3.41538"/>
<path d="M133.493 75.5078L148.822 90.8366C151.045 93.0596 151.045 96.6637 148.822 98.8867L140.893 106.816" stroke="#356778" stroke-width="3.41538"/>
<circle cx="118.97" cy="119.339" r="26.3537" transform="rotate(-15 118.97 119.339)" fill="#688D99"/>
<path d="M111.52 109.696C111.361 104.88 117.814 103.151 120.084 107.401C121.15 109.397 123.52 110.307 125.648 109.537C130.179 107.897 133.817 113.5 130.477 116.973C128.908 118.603 128.775 121.139 130.165 122.924C133.124 126.727 128.92 131.919 124.585 129.815C122.55 128.827 120.097 129.484 118.829 131.357C116.127 135.347 109.89 132.952 110.551 128.18C110.862 125.938 109.479 123.809 107.305 123.181C102.676 121.845 103.026 115.173 107.769 114.327C109.997 113.93 111.595 111.957 111.52 109.696Z" fill="#02343F"/>
<path d="M78.1224 132.264C78.0364 129.661 81.5247 128.726 82.7518 131.024C83.328 132.102 84.6092 132.594 85.7592 132.178C88.2083 131.292 90.1752 134.321 88.3695 136.198C87.5216 137.079 87.4497 138.449 88.2009 139.415C89.8005 141.47 87.5278 144.277 85.1848 143.139C84.0845 142.605 82.759 142.96 82.0731 143.973C80.6127 146.129 77.2412 144.835 77.5988 142.255C77.7667 141.044 77.0193 139.893 75.8443 139.554C73.3421 138.831 73.5311 135.225 76.0951 134.768C77.2992 134.553 78.1628 133.486 78.1224 132.264Z" fill="#688D99"/>
<path d="M94.1637 147.938C94.1185 146.571 95.9512 146.08 96.5959 147.287C96.8986 147.853 97.5717 148.112 98.1759 147.893C99.4626 147.428 100.496 149.019 99.5473 150.005C99.1018 150.468 99.0641 151.188 99.4587 151.695C100.299 152.775 99.1051 154.249 97.8741 153.652C97.2961 153.371 96.5997 153.558 96.2394 154.09C95.4721 155.223 93.7007 154.543 93.8886 153.188C93.9769 152.551 93.5842 151.946 92.9668 151.768C91.6522 151.388 91.7515 149.494 93.0986 149.254C93.7312 149.141 94.1849 148.581 94.1637 147.938Z" fill="#356778"/>
<path d="M101.047 61.8465C101.047 59.9603 102.576 58.4312 104.462 58.4312H130.647C132.533 58.4312 134.062 59.9603 134.062 61.8465V66.4004H101.047V61.8465Z" fill="#688D99"/>
</svg>