<svg width="234" height="172" viewBox="0 0 234 172" fill="none" xmlns="http://www.w3.org/2000/svg">
<circle cx="119" cy="86" r="86" fill="#688D99"/>
<rect x="177.001" width="8.54132" height="34.7347" fill="#356778"/>
<rect x="197" y="26.8984" width="8.54132" height="34.7347" transform="rotate(133.474 197 26.8984)" fill="#356778"/>
<rect x="191.001" y="2.81641" width="8.54132" height="34.7347" transform="rotate(45 191.001 2.81641)" fill="#356778"/>
<rect x="199" y="13.8462" width="8.54132" height="34.7347" transform="rotate(90 199 13.8462)" fill="#356778"/>
<circle cx="215" cy="26" r="7" fill="#688D99"/>
<circle cx="5.5" cy="104.5" r="5.5" fill="#688D99"/>
<path d="M203.611 47.7007C204.57 43.5843 210.43 43.5843 211.389 47.7007C211.839 49.6337 213.64 50.9427 215.618 50.7734C219.829 50.413 221.64 55.9867 218.021 58.1703C216.322 59.1957 215.634 61.3136 216.406 63.1421C218.05 67.0357 213.309 70.4804 210.114 67.7136C208.613 66.4143 206.387 66.4143 204.886 67.7136C201.691 70.4804 196.95 67.0357 198.594 63.1421C199.366 61.3136 198.678 59.1957 196.979 58.1703C193.36 55.9867 195.171 50.413 199.382 50.7734C201.36 50.9427 203.161 49.6337 203.611 47.7007Z" fill="#356778"/>
<path d="M28.5 110L33.1879 116.182L40.8744 115.126L39.8175 122.812L46 127.5L39.8175 132.188L40.8744 139.874L33.1879 138.818L28.5 145L23.8121 138.818L16.1256 139.874L17.1825 132.188L11 127.5L17.1825 122.812L16.1256 115.126L23.8121 116.182L28.5 110Z" fill="#356778"/>
<rect width="91" height="103" rx="5" transform="matrix(-1 0 0 1 164 35)" fill="white"/>
<path d="M84 107H126" stroke="#688D99" stroke-width="3" stroke-linecap="round"/>
<path d="M84.5 114.5H139.5" stroke="#688D99" stroke-width="3" stroke-linecap="round"/>
<path d="M84.5 122.5H131.5" stroke="#688D99" stroke-width="3" stroke-linecap="round"/>
<circle cx="119" cy="70" r="11.25" fill="#02343F" stroke="#02343F" stroke-width="1.5"/>
<path d="M114 69.8205L117.59 73.4103L124 67" stroke="white" stroke-width="1.5" stroke-linecap="round"/>
<path d="M177.553 52.7062C178.105 51.7496 179.328 51.4218 180.285 51.9741L188.079 56.4741C189.036 57.0264 189.363 58.2496 188.811 59.2062L161.311 106.838L150.053 100.338L177.553 52.7062Z" fill="#02343F"/>
<path d="M150.023 113.39L149.767 100.843L161.017 107.338L150.023 113.39Z" fill="#688D99"/>
<path d="M150.023 113.39L150.023 108.666L154.114 111.028L150.023 113.39Z" fill="#02343F"/>
</svg>
