<svg width="253" height="46" viewBox="0 0 253 46" fill="none" xmlns="http://www.w3.org/2000/svg">
<path d="M36.1327 42.36C35.3327 42.76 34.3527 43.16 33.1927 43.56C32.0327 43.96 30.8127 44.32 29.5327 44.64C28.2527 44.96 26.9727 45.22 25.6927 45.42C24.4127 45.62 23.2727 45.72 22.2727 45.72C18.8327 45.72 15.7527 45.28 13.0327 44.4C10.3527 43.48 8.05266 42.12 6.13266 40.32C4.25266 38.48 2.81266 36.2 1.81266 33.48C0.812656 30.76 0.312656 27.6 0.312656 24C0.312656 20.08 0.912656 16.76 2.11266 14.04C3.35266 11.28 4.97266 9.04 6.97266 7.32C9.01266 5.56 11.3127 4.28 13.8727 3.48C16.4327 2.68 19.0527 2.28 21.7327 2.28C24.3727 2.28 26.8527 2.46 29.1727 2.82C31.4927 3.18 33.3327 3.7 34.6927 4.38C34.6927 4.98 34.6527 5.76 34.5727 6.72C34.5327 7.64 34.4527 8.64 34.3327 9.72C34.2127 10.8 34.0527 11.88 33.8527 12.96C33.6927 14.04 33.4927 15.02 33.2527 15.9H30.7927L27.4327 6.78C26.9927 6.58 26.3327 6.44 25.4527 6.36C24.5727 6.24 23.6927 6.18 22.8127 6.18C21.1727 6.18 19.5927 6.5 18.0727 7.14C16.5527 7.78 15.2127 8.82 14.0527 10.26C12.8927 11.66 11.9727 13.5 11.2927 15.78C10.6127 18.02 10.2727 20.76 10.2727 24C10.2727 26.64 10.5727 29.06 11.1727 31.26C11.8127 33.42 12.6927 35.28 13.8127 36.84C14.9327 38.4 16.2727 39.62 17.8327 40.5C19.3927 41.38 21.1127 41.82 22.9927 41.82C23.5927 41.82 24.2127 41.78 24.8527 41.7C25.4927 41.58 26.0927 41.44 26.6527 41.28C27.2127 41.12 27.6927 40.94 28.0927 40.74C28.5327 40.54 28.8327 40.36 28.9927 40.2V28.92C27.9527 28.84 26.9727 28.64 26.0527 28.32C25.1327 28 24.2727 27.62 23.4727 27.18V24.9H39.8527V27.18C39.4927 27.54 39.0127 27.88 38.4127 28.2C37.8127 28.48 37.0527 28.72 36.1327 28.92V42.36ZM57.9117 21.9C57.4317 22.14 56.8717 22.54 56.2317 23.1C55.5917 23.66 55.0117 24.58 54.4917 25.86V41.22C55.2917 41.3 56.0917 41.46 56.8917 41.7C57.6917 41.9 58.4917 42.22 59.2917 42.66V45H41.8917V42.66C42.6117 42.26 43.2917 41.96 43.9317 41.76C44.5717 41.56 45.2117 41.38 45.8517 41.22V19.26L41.8917 18.78V16.44C42.5317 16.16 43.3117 15.9 44.2317 15.66C45.1917 15.42 46.1717 15.22 47.1717 15.06C48.1717 14.86 49.1317 14.7 50.0517 14.58C51.0117 14.46 51.8117 14.36 52.4517 14.28H54.4917V22.26H54.7317C55.0517 21.38 55.5117 20.46 56.1117 19.5C56.7517 18.54 57.4917 17.66 58.3317 16.86C59.1717 16.06 60.0917 15.42 61.0917 14.94C62.0917 14.46 63.1317 14.24 64.2117 14.28C64.6517 14.84 65.0317 15.64 65.3517 16.68C65.6717 17.68 65.9317 18.64 66.1317 19.56V21.9H57.9117ZM68.2116 30C68.2116 27.56 68.5716 25.38 69.2916 23.46C70.0516 21.5 71.1116 19.84 72.4716 18.48C73.8716 17.12 75.5516 16.08 77.5116 15.36C79.4716 14.64 81.6916 14.28 84.1716 14.28C86.9716 14.28 89.3716 14.68 91.3716 15.48C93.4116 16.24 95.0716 17.32 96.3516 18.72C97.6716 20.08 98.6316 21.74 99.2316 23.7C99.8316 25.62 100.132 27.72 100.132 30C100.132 32.44 99.7716 34.64 99.0516 36.6C98.3316 38.52 97.2716 40.16 95.8716 41.52C94.5116 42.88 92.8316 43.92 90.8316 44.64C88.8716 45.36 86.6516 45.72 84.1716 45.72C81.4516 45.72 79.0916 45.34 77.0916 44.58C75.0916 43.78 73.4316 42.7 72.1116 41.34C70.7916 39.94 69.8116 38.28 69.1716 36.36C68.5316 34.4 68.2116 32.28 68.2116 30ZM77.5116 30C77.5116 31.8 77.6116 33.46 77.8116 34.98C78.0516 36.46 78.4516 37.72 79.0116 38.76C79.5716 39.8 80.3316 40.62 81.2916 41.22C82.2516 41.78 83.4916 42.06 85.0116 42.06C85.8916 42.06 86.6916 41.86 87.4116 41.46C88.1316 41.02 88.7516 40.34 89.2716 39.42C89.7916 38.46 90.1716 37.22 90.4116 35.7C90.6916 34.14 90.8316 32.24 90.8316 30C90.8316 28.16 90.7116 26.5 90.4716 25.02C90.2716 23.54 89.8916 22.28 89.3316 21.24C88.8116 20.2 88.0916 19.4 87.1716 18.84C86.2516 18.24 85.0916 17.94 83.6916 17.94C82.6516 17.94 81.7516 18.16 80.9916 18.6C80.2316 19 79.5916 19.68 79.0716 20.64C78.5516 21.56 78.1516 22.8 77.8716 24.36C77.6316 25.88 77.5116 27.76 77.5116 30ZM106.237 33.12C106.237 30.6 106.297 28.26 106.417 26.1C106.537 23.94 106.597 21.66 106.597 19.26L102.637 18.78V16.44C103.277 16.2 104.057 15.96 104.977 15.72C105.937 15.48 106.917 15.28 107.917 15.12C108.917 14.92 109.877 14.76 110.797 14.64C111.757 14.48 112.557 14.36 113.197 14.28H115.237C115.237 17.28 115.177 20.24 115.057 23.16C114.937 26.04 114.877 28.88 114.877 31.68C114.877 34.96 115.197 37.32 115.837 38.76C116.517 40.2 117.757 40.92 119.557 40.92C120.797 40.92 121.937 40.46 122.977 39.54C124.057 38.58 124.937 37.06 125.617 34.98V19.26L121.717 18.78V16.44C122.317 16.2 123.057 15.96 123.937 15.72C124.857 15.48 125.797 15.28 126.757 15.12C127.757 14.92 128.737 14.76 129.697 14.64C130.657 14.48 131.497 14.36 132.217 14.28H134.257V40.74L138.217 41.22V43.32C137.657 43.56 136.957 43.8 136.117 44.04C135.277 44.28 134.397 44.52 133.477 44.76C132.557 44.96 131.637 45.12 130.717 45.24C129.837 45.4 129.037 45.52 128.317 45.6H126.277L125.857 38.46H125.617C125.417 39.3 125.057 40.16 124.537 41.04C124.017 41.88 123.337 42.66 122.497 43.38C121.697 44.06 120.737 44.62 119.617 45.06C118.497 45.5 117.257 45.72 115.897 45.72C114.377 45.72 113.017 45.52 111.817 45.12C110.657 44.76 109.657 44.1 108.817 43.14C107.977 42.18 107.337 40.9 106.897 39.3C106.457 37.66 106.237 35.6 106.237 33.12ZM139.781 16.44C141.301 15.48 142.901 14.8 144.581 14.4V9.54C144.821 9.3 145.221 9.08 145.781 8.88C146.381 8.64 147.001 8.44 147.641 8.28C148.321 8.08 148.981 7.9 149.621 7.74C150.261 7.58 150.781 7.46 151.181 7.38H153.221V15H161.141V18.78H153.221V34.32C153.221 36.8 153.521 38.52 154.121 39.48C154.761 40.44 155.801 40.92 157.241 40.92C157.961 40.92 158.761 40.88 159.641 40.8C160.561 40.68 161.401 40.48 162.161 40.2L162.581 42.18C162.221 42.54 161.681 42.92 160.961 43.32C160.281 43.72 159.481 44.1 158.561 44.46C157.681 44.82 156.701 45.12 155.621 45.36C154.581 45.6 153.481 45.72 152.321 45.72C149.721 45.72 147.781 45.04 146.501 43.68C145.221 42.32 144.581 40.12 144.581 37.08V18.78H139.781V16.44ZM181.686 45H165.126V42.66C165.726 42.34 166.346 42.08 166.986 41.88C167.626 41.64 168.326 41.42 169.086 41.22V19.26L165.126 18.78V16.44C165.726 16.2 166.466 15.96 167.346 15.72C168.266 15.48 169.226 15.28 170.226 15.12C171.226 14.92 172.206 14.76 173.166 14.64C174.126 14.48 174.966 14.36 175.686 14.28H177.726V41.22C178.526 41.42 179.246 41.64 179.886 41.88C180.526 42.08 181.126 42.34 181.686 42.66V45ZM168.066 5.16C168.066 3.76 168.546 2.66 169.506 1.86C170.466 1.06 171.706 0.659999 173.226 0.659999C174.746 0.659999 175.986 1.06 176.946 1.86C177.906 2.66 178.386 3.76 178.386 5.16C178.386 6.52 177.906 7.6 176.946 8.4C175.986 9.2 174.746 9.6 173.226 9.6C171.706 9.6 170.466 9.2 169.506 8.4C168.546 7.6 168.066 6.52 168.066 5.16ZM221.108 45H205.208V42.66C205.728 42.38 206.228 42.14 206.708 41.94C207.228 41.7 207.828 41.46 208.508 41.22V27.12C208.508 24.6 208.148 22.64 207.428 21.24C206.708 19.8 205.428 19.08 203.588 19.08C202.068 19.08 200.748 19.58 199.628 20.58C198.548 21.54 197.728 22.86 197.168 24.54V41.22C197.808 41.38 198.368 41.58 198.848 41.82C199.368 42.02 199.908 42.3 200.468 42.66V45H184.568V42.66C185.568 42.14 186.888 41.66 188.528 41.22V19.26L184.568 18.78V16.44C185.088 16.2 185.768 15.98 186.608 15.78C187.448 15.54 188.348 15.32 189.308 15.12C190.308 14.92 191.308 14.76 192.308 14.64C193.348 14.48 194.288 14.36 195.128 14.28H197.168V20.46H197.228C198.068 18.78 199.328 17.34 201.008 16.14C202.688 14.9 204.728 14.28 207.128 14.28C208.688 14.28 210.088 14.48 211.328 14.88C212.568 15.24 213.608 15.9 214.448 16.86C215.328 17.82 215.988 19.12 216.428 20.76C216.908 22.36 217.148 24.4 217.148 26.88V41.22C218.748 41.5 220.068 41.98 221.108 42.66V45ZM250.961 39.96C250.641 40.64 250.121 41.34 249.401 42.06C248.721 42.74 247.861 43.36 246.821 43.92C245.821 44.44 244.641 44.86 243.281 45.18C241.961 45.54 240.521 45.72 238.961 45.72C236.481 45.72 234.281 45.36 232.361 44.64C230.441 43.88 228.841 42.82 227.561 41.46C226.281 40.06 225.301 38.4 224.621 36.48C223.981 34.56 223.661 32.4 223.661 30C223.661 24.88 225.001 20.98 227.681 18.3C230.361 15.62 234.081 14.28 238.841 14.28C240.881 14.28 242.781 14.56 244.541 15.12C246.341 15.68 247.821 16.6 248.981 17.88C250.181 19.16 251.001 20.84 251.441 22.92C251.921 25 251.901 27.54 251.381 30.54H232.961C233.001 33.7 233.801 36.22 235.361 38.1C236.961 39.98 239.301 40.92 242.381 40.92C243.701 40.92 245.061 40.72 246.461 40.32C247.901 39.92 249.021 39.4 249.821 38.76L250.961 39.96ZM238.601 17.7C237.801 17.7 237.081 17.84 236.441 18.12C235.841 18.4 235.301 18.92 234.821 19.68C234.381 20.4 234.021 21.4 233.741 22.68C233.461 23.92 233.261 25.5 233.141 27.42H242.801C243.081 24.3 242.901 21.9 242.261 20.22C241.621 18.54 240.401 17.7 238.601 17.7Z" fill="#02343F"/>
</svg>
