<svg width="16" height="17" viewBox="0 0 16 17" fill="none" xmlns="http://www.w3.org/2000/svg">
<path d="M7.54697 10.0642C7.55791 8.59854 8.00635 8.1501 8.76104 7.69072C9.21494 7.41729 9.55947 6.97979 9.55947 6.36729C9.55947 5.62354 8.97979 5.14775 8.25791 5.15322C7.63447 5.14775 7.00557 5.51963 6.94541 6.42197H5.9501C6.00479 5.09307 7.00557 4.32197 8.25791 4.32197C9.63057 4.32197 10.522 5.20244 10.522 6.41104C10.522 7.26963 10.1173 7.86572 9.43916 8.28135C8.75557 8.69697 8.50947 9.11807 8.4876 10.0642V10.1188H7.54697V10.0642ZM7.3501 11.7048C7.33916 11.322 7.66729 11.0048 8.0501 11.0048C8.43838 11.0048 8.75557 11.322 8.7501 11.7048C8.75557 12.0931 8.43838 12.4103 8.0501 12.4157C7.66729 12.4103 7.33916 12.0931 7.3501 11.7048Z" fill="#4F4F4F"/>
<circle cx="8" cy="8.75" r="7.6" stroke="#4F4F4F" stroke-width="0.8"/>
</svg>
