<svg width="18" height="17" viewBox="0 0 18 17" fill="none" xmlns="http://www.w3.org/2000/svg">
<path d="M6.35859 2.34387C7.00964 -0.452163 10.9904 -0.452163 11.6414 2.34387V2.34387C11.9471 3.65687 13.1709 4.54598 14.5141 4.43101V4.43101C17.3745 4.18618 18.6046 7.97206 16.1466 9.45527V9.45527C14.9923 10.1518 14.5249 11.5904 15.0493 12.8323V12.8323C16.1661 15.4771 12.9456 17.8169 10.7754 15.9375V15.9375C9.75632 15.055 8.24368 15.055 7.22457 15.9375V15.9375C5.05439 17.8169 1.83392 15.4771 2.95068 12.8323V12.8323C3.4751 11.5904 3.00767 10.1518 1.8534 9.45527V9.45527C-0.604596 7.97206 0.625513 4.18618 3.48588 4.43101V4.43101C4.8291 4.54598 6.05286 3.65687 6.35859 2.34387V2.34387Z" fill="#688D99"/>
</svg>
