<svg width="172" height="171" viewBox="0 0 172 171" fill="none" xmlns="http://www.w3.org/2000/svg">
<mask id="mask0_29_3769" style="mask-type:alpha" maskUnits="userSpaceOnUse" x="0" y="0" width="172" height="171">
<circle cx="86" cy="85.5" r="85.5" fill="#646464"/>
</mask>
<g mask="url(#mask0_29_3769)">
<circle cx="86" cy="85.5" r="85.5" fill="#F2E7D9"/>
<path d="M103.168 104.288L102.187 102.544C101.485 102.939 101.089 103.716 101.181 104.516C101.273 105.317 101.836 105.983 102.609 106.208L103.168 104.288ZM69.6745 104.288L70.2329 106.208C71.0063 105.983 71.5693 105.317 71.6614 104.516C71.7535 103.716 71.3567 102.939 70.6547 102.544L69.6745 104.288ZM118.958 73.7069C118.958 86.12 112.186 96.9227 102.187 102.544L104.148 106.031C115.37 99.7214 122.958 87.6064 122.958 73.7069H118.958ZM86.4211 40.7488C104.368 40.7488 118.958 55.4817 118.958 73.7069H122.958C122.958 53.3184 106.623 36.7488 86.4211 36.7488V40.7488ZM53.8842 73.7069C53.8842 55.4817 68.4742 40.7488 86.4211 40.7488V36.7488C66.2195 36.7488 49.8842 53.3184 49.8842 73.7069H53.8842ZM70.6547 102.544C60.6563 96.9227 53.8842 86.12 53.8842 73.7069H49.8842C49.8842 87.6064 57.4722 99.7214 68.6943 106.031L70.6547 102.544ZM34.5098 149.941C34.5098 129.673 49.354 112.279 70.2329 106.208L69.1161 102.367C46.8433 108.844 30.5098 127.587 30.5098 149.941H34.5098ZM86.4211 195.956C57.5272 195.956 34.5098 175.143 34.5098 149.941H30.5098C30.5098 177.775 55.7662 199.956 86.4211 199.956V195.956ZM138.332 149.941C138.332 175.143 115.315 195.956 86.4211 195.956V199.956C117.076 199.956 142.332 177.775 142.332 149.941H138.332ZM102.609 106.208C123.488 112.279 138.332 129.673 138.332 149.941H142.332C142.332 127.587 125.999 108.844 103.726 102.367L102.609 106.208Z" fill="#011F2B"/>
</g>
</svg>
